<?xml version="1.0" encoding="UTF-8" standalone="no"?>
<!-- Created with Inkscape (http://www.inkscape.org/) -->

<svg
   version="1.1"
   id="svg2"
   width="2560"
   height="1440"
   viewBox="0 0 2560 1440"
   sodipodi:docname="Final version.ai"
   xmlns:inkscape="http://www.inkscape.org/namespaces/inkscape"
   xmlns:sodipodi="http://sodipodi.sourceforge.net/DTD/sodipodi-0.dtd"
   xmlns="http://www.w3.org/2000/svg"
   xmlns:svg="http://www.w3.org/2000/svg">
  <defs
     id="defs6">
    <clipPath
       clipPathUnits="userSpaceOnUse"
       id="clipPath16">
      <path
         d="M 0,1080 H 1920 V 0 H 0 Z"
         id="path14" />
    </clipPath>
  </defs>
  <sodipodi:namedview
     id="namedview4"
     pagecolor="#ffffff"
     bordercolor="#000000"
     borderopacity="0.25"
     inkscape:showpageshadow="2"
     inkscape:pageopacity="0.0"
     inkscape:pagecheckerboard="0"
     inkscape:deskcolor="#d1d1d1" />
  <g
     id="g8"
     inkscape:groupmode="layer"
     inkscape:label="Final version"
     transform="matrix(1.3333333,0,0,-1.3333333,0,1440)">
    <g
       id="g10">
      <g
         id="g12"
         clip-path="url(#clipPath16)">
        <g
           id="g18"
           transform="translate(585,540.25)">
          <path
             d="M 0,0 C 0,-207.107 167.893,-375 375,-375 582.107,-375 750,-207.107 750,0 750,207.107 582.107,375 375,375 167.893,375 0,207.107 0,0"
             style="fill:#e0e2db;fill-opacity:1;fill-rule:nonzero;stroke:none"
             id="path20" />
        </g>
        <g
           id="g22"
           transform="translate(846.3749,506.3756)">
          <path
             d="m 0,0 -72.75,-88.501 c -4.452,-5.416 -9.993,-9.836 -16.264,-12.971 -24.699,-12.349 -54.733,-2.338 -67.082,22.361 l -50,100 c -7.038,14.076 -7.038,30.645 0,44.721 l 50,100 c 3.135,6.271 7.554,11.812 12.971,16.265 21.332,17.535 52.84,14.457 70.375,-6.875 L 0,86.499 C 17.535,65.167 49.044,62.089 70.376,79.624 91.708,97.16 94.786,128.668 77.25,150 c -2.062,2.509 -4.365,4.812 -6.874,6.875 l -88.501,72.749 c -5.417,4.452 -9.836,9.994 -12.971,16.265 -12.35,24.699 -2.339,54.732 22.36,67.082 l 100,50 c 14.077,7.038 30.645,7.038 44.722,0 l 100,-50 c 6.271,-3.136 11.812,-7.555 16.264,-12.971 17.536,-21.332 14.458,-52.84 -6.874,-70.376 L 156.875,156.875 C 135.542,139.339 132.465,107.831 150,86.499 c 17.535,-21.332 49.044,-24.41 70.376,-6.875 2.509,2.063 4.811,4.365 6.874,6.875 L 300,175 c 4.452,5.416 9.994,9.835 16.264,12.971 24.699,12.349 54.733,2.338 67.082,-22.361 l 50,-100 c 7.039,-14.076 7.039,-30.645 0,-44.721 l -50,-100 c -3.135,-6.271 -7.554,-11.813 -12.97,-16.265 -21.332,-17.535 -52.841,-14.457 -70.376,6.875 L 227.25,0 c -17.535,21.332 -49.043,24.41 -70.375,6.875 -21.333,-17.536 -24.41,-49.044 -6.875,-70.376 2.063,-2.51 4.365,-4.812 6.875,-6.875 l 88.501,-72.75 c 3.617,-2.973 6.798,-6.44 9.451,-10.298 15.644,-22.755 9.88,-53.884 -12.875,-69.529 l -100,-68.75 c -17.063,-11.73 -39.591,-11.73 -56.653,0 l -100,68.75 c -3.859,2.653 -7.326,5.835 -10.299,9.452 -17.535,21.332 -14.458,52.84 6.875,70.375 l 88.501,72.75 C 91.708,-52.84 94.786,-21.332 77.25,0 59.715,21.332 28.207,24.41 6.875,6.875 4.365,4.812 2.063,2.509 0,0"
             style="fill:#fe2401;fill-opacity:1;fill-rule:nonzero;stroke:none"
             id="path24" />
        </g>
      </g>
    </g>
  </g>
</svg>
